<mxfile host="app.diagrams.net" modified="2022-02-04T10:29:35.322Z" agent="5.0 (Windows)" etag="dcoF8Cja-CqF5syx0tG0" version="16.5.3" type="github">
  <diagram id="FZS-LspY1kVB6EsSSzgE" name="Page-1">
    <mxGraphModel dx="1185" dy="643" grid="1" gridSize="10" guides="1" tooltips="1" connect="1" arrows="1" fold="1" page="1" pageScale="1" pageWidth="850" pageHeight="1100" math="0" shadow="0">
      <root>
        <mxCell id="0" />
        <mxCell id="1" parent="0" />
        <mxCell id="EoWeRwG33imuI-vRMXuL-1" value="&lt;p style=&quot;margin: 0px ; margin-top: 4px ; text-align: center&quot;&gt;&lt;b&gt;VisaAliasSettingsBindModel&lt;/b&gt;&lt;/p&gt;&lt;hr size=&quot;1&quot;&gt;&lt;p style=&quot;margin: 0px ; margin-left: 4px&quot;&gt;+ loadState = State&amp;lt;Boolean&amp;gt;()&lt;/p&gt;&lt;p style=&quot;margin: 0px ; margin-left: 4px&quot;&gt;+ switchState = State&amp;lt;Boolean&amp;gt;()&lt;/p&gt;&lt;p style=&quot;margin: 0px ; margin-left: 4px&quot;&gt;+ initialScreenState = State&amp;lt;ScreenItems&amp;gt;()&lt;/p&gt;&lt;p style=&quot;margin: 0px ; margin-left: 4px&quot;&gt;+ currentScreenState = State&amp;lt;ScreenItems&amp;gt;()&lt;/p&gt;&lt;p style=&quot;margin: 0px ; margin-left: 4px&quot;&gt;+ buttonState = State&amp;lt;ButtonState&amp;gt;()&lt;br&gt;&lt;/p&gt;&lt;p style=&quot;margin: 0px ; margin-left: 4px&quot;&gt;&lt;br&gt;&lt;/p&gt;&lt;p style=&quot;margin: 0px ; margin-left: 4px&quot;&gt;+ backNavigationAction = Action&amp;lt;Unit&amp;gt;()&lt;br&gt;&lt;/p&gt;&lt;p style=&quot;margin: 0px ; margin-left: 4px&quot;&gt;+ changeValueSwitchAction = Action&amp;lt;Boolean&amp;gt;()&lt;/p&gt;&lt;p style=&quot;margin: 0px ; margin-left: 4px&quot;&gt;+ clickLinkAction = Action&amp;lt;Unit&amp;gt;()&lt;/p&gt;&lt;p style=&quot;margin: 0px ; margin-left: 4px&quot;&gt;+ selectSourceAction = Action&amp;lt;Unit&amp;gt;()&lt;/p&gt;&lt;p style=&quot;margin: 0px ; margin-left: 4px&quot;&gt;+ selectPhoneAction = Action&amp;lt;Unit&amp;gt;()&lt;/p&gt;&lt;p style=&quot;margin: 0px ; margin-left: 4px&quot;&gt;+ clickConfirmationButtonAction = Action&amp;lt;Unit&amp;gt;()&lt;br&gt;&lt;/p&gt;&lt;hr size=&quot;1&quot;&gt;&lt;p style=&quot;margin: 0px ; margin-left: 4px&quot;&gt;+ method(): Type&lt;/p&gt;" style="verticalAlign=top;align=left;overflow=fill;fontSize=12;fontFamily=Helvetica;html=1;" vertex="1" parent="1">
          <mxGeometry x="80" y="80" width="280" height="240" as="geometry" />
        </mxCell>
        <mxCell id="EoWeRwG33imuI-vRMXuL-2" value="&lt;p style=&quot;margin: 0px ; margin-top: 4px ; text-align: center&quot;&gt;&lt;b&gt;ScreenItems&lt;/b&gt;&lt;/p&gt;&lt;hr size=&quot;1&quot;&gt;&lt;p style=&quot;margin: 0px ; margin-left: 4px&quot;&gt;+ field: Type&lt;/p&gt;&lt;hr size=&quot;1&quot;&gt;&lt;p style=&quot;margin: 0px ; margin-left: 4px&quot;&gt;+ method(): Type&lt;/p&gt;" style="verticalAlign=top;align=left;overflow=fill;fontSize=12;fontFamily=Helvetica;html=1;" vertex="1" parent="1">
          <mxGeometry x="440" y="80" width="200" height="280" as="geometry" />
        </mxCell>
        <mxCell id="EoWeRwG33imuI-vRMXuL-3" value="&lt;p style=&quot;margin: 0px ; margin-top: 4px ; text-align: center&quot;&gt;&lt;b&gt;CardItem&lt;/b&gt;&lt;/p&gt;&lt;hr size=&quot;1&quot;&gt;&lt;p style=&quot;margin: 0px ; margin-left: 4px&quot;&gt;+ cardProduct: CardProduct&lt;/p&gt;&lt;hr size=&quot;1&quot;&gt;&lt;p style=&quot;margin: 0px ; margin-left: 4px&quot;&gt;+ method(): Type&lt;/p&gt;" style="verticalAlign=top;align=left;overflow=fill;fontSize=12;fontFamily=Helvetica;html=1;" vertex="1" parent="1">
          <mxGeometry x="450" y="160" width="180" height="80" as="geometry" />
        </mxCell>
        <mxCell id="EoWeRwG33imuI-vRMXuL-4" value="&lt;p style=&quot;margin: 0px ; margin-top: 4px ; text-align: center&quot;&gt;&lt;b&gt;PhoneItem&lt;/b&gt;&lt;/p&gt;&lt;hr size=&quot;1&quot;&gt;&lt;p style=&quot;margin: 0px ; margin-left: 4px&quot;&gt;+ phone: PhoneNumber&lt;/p&gt;&lt;hr size=&quot;1&quot;&gt;&lt;p style=&quot;margin: 0px ; margin-left: 4px&quot;&gt;+ method(): Type&lt;/p&gt;" style="verticalAlign=top;align=left;overflow=fill;fontSize=12;fontFamily=Helvetica;html=1;" vertex="1" parent="1">
          <mxGeometry x="450" y="250" width="180" height="95" as="geometry" />
        </mxCell>
        <mxCell id="EoWeRwG33imuI-vRMXuL-6" value="&lt;p style=&quot;margin: 0px ; margin-top: 4px ; text-align: center&quot;&gt;&lt;b&gt;ButtonState&lt;/b&gt;&lt;/p&gt;&lt;hr size=&quot;1&quot;&gt;&lt;p style=&quot;margin: 0px ; margin-left: 4px&quot;&gt;+ textRes: Int&lt;/p&gt;&lt;p style=&quot;margin: 0px ; margin-left: 4px&quot;&gt;+ isEnabled: Boolean&lt;br&gt;&lt;/p&gt;&lt;hr size=&quot;1&quot;&gt;&lt;p style=&quot;margin: 0px ; margin-left: 4px&quot;&gt;+ method(): Type&lt;/p&gt;" style="verticalAlign=top;align=left;overflow=fill;fontSize=12;fontFamily=Helvetica;html=1;" vertex="1" parent="1">
          <mxGeometry x="720" y="80" width="160" height="90" as="geometry" />
        </mxCell>
        <mxCell id="EoWeRwG33imuI-vRMXuL-7" value="1h" style="shape=umlFrame;whiteSpace=wrap;html=1;" vertex="1" parent="1">
          <mxGeometry x="60" y="40" width="320" height="300" as="geometry" />
        </mxCell>
        <mxCell id="EoWeRwG33imuI-vRMXuL-8" value="1h" style="shape=umlFrame;whiteSpace=wrap;html=1;" vertex="1" parent="1">
          <mxGeometry x="420" y="40" width="240" height="340" as="geometry" />
        </mxCell>
        <mxCell id="EoWeRwG33imuI-vRMXuL-9" value="10m" style="shape=umlFrame;whiteSpace=wrap;html=1;" vertex="1" parent="1">
          <mxGeometry x="700" y="40" width="200" height="150" as="geometry" />
        </mxCell>
        <mxCell id="EoWeRwG33imuI-vRMXuL-10" value="2h 10m + 1h (отладка) = 3h 10m" style="shape=umlFrame;whiteSpace=wrap;html=1;width=240;height=30;" vertex="1" parent="1">
          <mxGeometry x="40" width="880" height="400" as="geometry" />
        </mxCell>
      </root>
    </mxGraphModel>
  </diagram>
</mxfile>
